<mxfile host="Electron" modified="2023-12-30T10:58:50.680Z" agent="Mozilla/5.0 (Macintosh; Intel Mac OS X 10_15_7) AppleWebKit/537.36 (KHTML, like Gecko) draw.io/22.1.16 Chrome/120.0.6099.109 Electron/28.1.0 Safari/537.36" etag="-6RrIaXNHnYpD4I3MSQN" version="22.1.16" type="device">
  <diagram name="Page-1" id="udvso_-TeXQ471GxqDBE">
    <mxGraphModel dx="954" dy="727" grid="1" gridSize="10" guides="1" tooltips="1" connect="1" arrows="1" fold="1" page="1" pageScale="1" pageWidth="827" pageHeight="1169" math="0" shadow="0">
      <root>
        <mxCell id="0" />
        <mxCell id="1" parent="0" />
        <mxCell id="ndoNzFzWmUu_PWySdX6u-9" value="" style="sketch=0;points=[[0.015,0.015,0],[0.985,0.015,0],[0.985,0.985,0],[0.015,0.985,0],[0.25,0,0],[0.5,0,0],[0.75,0,0],[1,0.25,0],[1,0.5,0],[1,0.75,0],[0.75,1,0],[0.5,1,0],[0.25,1,0],[0,0.75,0],[0,0.5,0],[0,0.25,0]];verticalLabelPosition=bottom;html=1;verticalAlign=top;aspect=fixed;align=center;pointerEvents=1;shape=mxgraph.cisco19.dns_server;fillColor=#005073;strokeColor=none;" parent="1" vertex="1">
          <mxGeometry x="1490" y="91.8" width="68.75" height="125" as="geometry" />
        </mxCell>
        <mxCell id="ndoNzFzWmUu_PWySdX6u-11" value="" style="sketch=0;pointerEvents=1;shadow=0;dashed=0;html=1;strokeColor=none;fillColor=#434445;aspect=fixed;labelPosition=center;verticalLabelPosition=bottom;verticalAlign=top;align=center;outlineConnect=0;shape=mxgraph.vvd.web_browser;" parent="1" vertex="1">
          <mxGeometry x="1090" y="100" width="174" height="123.55" as="geometry" />
        </mxCell>
        <mxCell id="ndoNzFzWmUu_PWySdX6u-22" value="" style="points=[[0.35,0,0],[0.98,0.51,0],[1,0.71,0],[0.67,1,0],[0,0.795,0],[0,0.65,0]];verticalLabelPosition=bottom;sketch=0;html=1;verticalAlign=top;aspect=fixed;align=center;pointerEvents=1;shape=mxgraph.cisco19.user;fillColor=#005073;strokeColor=none;" parent="1" vertex="1">
          <mxGeometry x="740.62" y="100" width="130" height="130" as="geometry" />
        </mxCell>
        <mxCell id="ndoNzFzWmUu_PWySdX6u-53" value="" style="html=1;shadow=1;dashed=0;align=center;verticalAlign=middle;shape=mxgraph.arrows2.arrow;dy=0.6;dx=40;notch=0;" parent="1" vertex="1">
          <mxGeometry x="1270" y="100" width="210" height="65" as="geometry" />
        </mxCell>
        <mxCell id="ndoNzFzWmUu_PWySdX6u-54" value="" style="html=1;shadow=1;dashed=0;align=center;verticalAlign=middle;shape=mxgraph.arrows2.arrow;dy=0.6;dx=40;notch=0;rotation=-180;" parent="1" vertex="1">
          <mxGeometry x="1270" y="151.8" width="210" height="65" as="geometry" />
        </mxCell>
        <mxCell id="ndoNzFzWmUu_PWySdX6u-55" value="&lt;b&gt;&lt;font style=&quot;font-size: 18px;&quot;&gt;www.foobar.com&lt;/font&gt;&lt;/b&gt;" style="text;strokeColor=none;align=center;fillColor=none;html=1;verticalAlign=middle;whiteSpace=wrap;rounded=0;shadow=1;" parent="1" vertex="1">
          <mxGeometry x="1290.8700000000001" y="107.5" width="120" height="50" as="geometry" />
        </mxCell>
        <mxCell id="ndoNzFzWmUu_PWySdX6u-56" value="&lt;font style=&quot;font-size: 18px;&quot;&gt;&lt;b&gt;8.8.8.8&lt;/b&gt;&lt;/font&gt;" style="text;strokeColor=none;align=center;fillColor=none;html=1;verticalAlign=middle;whiteSpace=wrap;rounded=0;" parent="1" vertex="1">
          <mxGeometry x="1420" y="170" width="60" height="30" as="geometry" />
        </mxCell>
        <mxCell id="ndoNzFzWmUu_PWySdX6u-57" value="" style="html=1;shadow=1;dashed=0;align=center;verticalAlign=middle;shape=mxgraph.arrows2.arrow;dy=0.55;dx=35.14;notch=0;rotation=90;" parent="1" vertex="1">
          <mxGeometry x="1108.02" y="294.7" width="194" height="59.37" as="geometry" />
        </mxCell>
        <mxCell id="ndoNzFzWmUu_PWySdX6u-58" value="&lt;font style=&quot;font-size: 18px;&quot;&gt;&lt;b&gt;HTTP Request&lt;/b&gt;&lt;/font&gt;" style="text;strokeColor=none;align=center;fillColor=none;html=1;verticalAlign=middle;whiteSpace=wrap;rounded=0;rotation=90;" parent="1" vertex="1">
          <mxGeometry x="1132.5300000000002" y="270.00000000000006" width="144.98" height="42.97" as="geometry" />
        </mxCell>
        <mxCell id="ndoNzFzWmUu_PWySdX6u-59" value="" style="html=1;shadow=1;dashed=0;align=center;verticalAlign=middle;shape=mxgraph.arrows2.arrow;dy=0.55;dx=35.14;notch=0;rotation=-90;" parent="1" vertex="1">
          <mxGeometry x="1057.5" y="294.7" width="195" height="57.04" as="geometry" />
        </mxCell>
        <mxCell id="ndoNzFzWmUu_PWySdX6u-60" value="&lt;font style=&quot;font-size: 18px;&quot;&gt;&lt;b&gt;HTTP Response&lt;/b&gt;&lt;/font&gt;" style="text;strokeColor=none;align=center;fillColor=none;html=1;verticalAlign=middle;whiteSpace=wrap;rounded=0;rotation=-90;" parent="1" vertex="1">
          <mxGeometry x="1075.62" y="330" width="158.75" height="40" as="geometry" />
        </mxCell>
        <mxCell id="ndoNzFzWmUu_PWySdX6u-168" value="" style="html=1;shadow=1;dashed=0;align=center;verticalAlign=middle;shape=mxgraph.arrows2.arrow;dy=0.6;dx=40;notch=0;" parent="1" vertex="1">
          <mxGeometry x="879.38" y="125.9" width="200.62" height="65" as="geometry" />
        </mxCell>
        <mxCell id="ndoNzFzWmUu_PWySdX6u-169" value="&lt;b&gt;&lt;font style=&quot;font-size: 18px;&quot;&gt;www.foobar.com&lt;/font&gt;&lt;/b&gt;" style="text;strokeColor=none;align=center;fillColor=none;html=1;verticalAlign=middle;whiteSpace=wrap;rounded=0;shadow=1;" parent="1" vertex="1">
          <mxGeometry x="890" y="133.4" width="130" height="50" as="geometry" />
        </mxCell>
        <mxCell id="ndoNzFzWmUu_PWySdX6u-258" value="" style="shape=table;startSize=0;container=1;collapsible=0;childLayout=tableLayout;" parent="1" vertex="1">
          <mxGeometry x="1030" y="465" width="108.23" height="40" as="geometry" />
        </mxCell>
        <mxCell id="ndoNzFzWmUu_PWySdX6u-259" value="" style="shape=tableRow;horizontal=0;startSize=0;swimlaneHead=0;swimlaneBody=0;strokeColor=inherit;top=0;left=0;bottom=0;right=0;collapsible=0;dropTarget=0;fillColor=none;points=[[0,0.5],[1,0.5]];portConstraint=eastwest;" parent="ndoNzFzWmUu_PWySdX6u-258" vertex="1">
          <mxGeometry width="108.23" height="40" as="geometry" />
        </mxCell>
        <mxCell id="ndoNzFzWmUu_PWySdX6u-260" value="" style="shape=partialRectangle;html=1;whiteSpace=wrap;connectable=0;strokeColor=inherit;overflow=hidden;fillColor=none;top=0;left=0;bottom=0;right=0;pointerEvents=1;" parent="ndoNzFzWmUu_PWySdX6u-259" vertex="1">
          <mxGeometry width="108" height="40" as="geometry">
            <mxRectangle width="108" height="40" as="alternateBounds" />
          </mxGeometry>
        </mxCell>
        <mxCell id="ndoNzFzWmUu_PWySdX6u-261" value="&lt;div style=&quot;&quot;&gt;&lt;b style=&quot;background-color: initial;&quot;&gt;&lt;font style=&quot;font-size: 18px;&quot;&gt;IP : 8.8.8.8&lt;/font&gt;&lt;/b&gt;&lt;/div&gt;&lt;div style=&quot;&quot;&gt;&lt;b style=&quot;background-color: initial;&quot;&gt;&lt;font size=&quot;3&quot; style=&quot;&quot;&gt;Server&lt;/font&gt;&lt;/b&gt;&lt;/div&gt;" style="text;strokeColor=none;align=center;fillColor=none;html=1;verticalAlign=middle;whiteSpace=wrap;rounded=0;" parent="1" vertex="1">
          <mxGeometry x="1002.03" y="472.5" width="164.18" height="25" as="geometry" />
        </mxCell>
        <mxCell id="ndoNzFzWmUu_PWySdX6u-137" value="" style="shape=table;childLayout=tableLayout;startSize=0;fillColor=none;collapsible=0;recursiveResize=0;expand=0;strokeWidth=3;" parent="1" vertex="1">
          <mxGeometry x="980" y="515" width="390" height="440" as="geometry" />
        </mxCell>
        <mxCell id="ndoNzFzWmUu_PWySdX6u-138" value="" style="shape=tableRow;horizontal=0;swimlaneHead=0;swimlaneBody=0;top=0;left=0;strokeColor=inherit;bottom=0;right=0;dropTarget=0;fontStyle=0;fillColor=none;points=[[0,0.5],[1,0.5]];portConstraint=eastwest;startSize=0;collapsible=0;recursiveResize=0;expand=0;" parent="ndoNzFzWmUu_PWySdX6u-137" vertex="1">
          <mxGeometry width="390" height="440" as="geometry" />
        </mxCell>
        <mxCell id="ndoNzFzWmUu_PWySdX6u-139" value="" style="swimlane;swimlaneHead=0;swimlaneBody=0;fontStyle=0;strokeColor=inherit;connectable=0;fillColor=none;startSize=0;collapsible=0;recursiveResize=0;expand=0;" parent="ndoNzFzWmUu_PWySdX6u-138" vertex="1">
          <mxGeometry width="390" height="440" as="geometry">
            <mxRectangle width="390" height="440" as="alternateBounds" />
          </mxGeometry>
        </mxCell>
        <mxCell id="ndoNzFzWmUu_PWySdX6u-141" value="" style="image;aspect=fixed;perimeter=ellipsePerimeter;html=1;align=center;shadow=0;dashed=0;spacingTop=3;image=img/lib/active_directory/web_server.svg;" parent="ndoNzFzWmUu_PWySdX6u-139" vertex="1">
          <mxGeometry x="287" y="60" width="96" height="120" as="geometry" />
        </mxCell>
        <mxCell id="ndoNzFzWmUu_PWySdX6u-145" value="&lt;font style=&quot;font-size: 18px;&quot;&gt;&lt;b style=&quot;&quot;&gt;Nginx&lt;br&gt;Web Server&lt;br&gt;&lt;/b&gt;&lt;/font&gt;" style="text;strokeColor=none;align=center;fillColor=none;html=1;verticalAlign=middle;whiteSpace=wrap;rounded=0;" parent="ndoNzFzWmUu_PWySdX6u-139" vertex="1">
          <mxGeometry x="242.38" y="179.99999999999994" width="170" height="30" as="geometry" />
        </mxCell>
        <mxCell id="ndoNzFzWmUu_PWySdX6u-140" value="" style="image;aspect=fixed;html=1;points=[];align=center;fontSize=12;image=img/lib/azure2/general/Files.svg;" parent="ndoNzFzWmUu_PWySdX6u-139" vertex="1">
          <mxGeometry x="287" y="321" width="80.75" height="88.32" as="geometry" />
        </mxCell>
        <mxCell id="ndoNzFzWmUu_PWySdX6u-144" value="&lt;font style=&quot;font-size: 18px;&quot;&gt;&lt;b style=&quot;&quot;&gt;Code Base&lt;/b&gt;&lt;/font&gt;" style="text;strokeColor=none;align=center;fillColor=none;html=1;verticalAlign=middle;whiteSpace=wrap;rounded=0;" parent="ndoNzFzWmUu_PWySdX6u-139" vertex="1">
          <mxGeometry x="259.99999999999994" y="409" width="145.29" height="30" as="geometry" />
        </mxCell>
        <mxCell id="ndoNzFzWmUu_PWySdX6u-299" value="" style="image;html=1;image=img/lib/clip_art/computers/Database_128x128.png" parent="ndoNzFzWmUu_PWySdX6u-139" vertex="1">
          <mxGeometry x="28.75" y="300" width="72.5" height="100" as="geometry" />
        </mxCell>
        <mxCell id="ndoNzFzWmUu_PWySdX6u-236" value="" style="sketch=0;pointerEvents=1;shadow=0;dashed=0;html=1;strokeColor=none;fillColor=#505050;labelPosition=center;verticalLabelPosition=bottom;verticalAlign=top;outlineConnect=0;align=center;shape=mxgraph.office.servers.application_server;" parent="ndoNzFzWmUu_PWySdX6u-139" vertex="1">
          <mxGeometry x="22.5" y="65" width="85" height="110" as="geometry" />
        </mxCell>
        <mxCell id="H9eBf4VtzPF5VkzEYVOb-1" value="&lt;span style=&quot;font-size: 18px;&quot;&gt;&lt;b&gt;MySQL&lt;br&gt;Database&lt;br&gt;&lt;/b&gt;&lt;/span&gt;" style="text;strokeColor=none;align=center;fillColor=none;html=1;verticalAlign=middle;whiteSpace=wrap;rounded=0;" parent="ndoNzFzWmUu_PWySdX6u-139" vertex="1">
          <mxGeometry x="-25" y="399.99999999999994" width="180" height="30" as="geometry" />
        </mxCell>
        <mxCell id="H9eBf4VtzPF5VkzEYVOb-2" value="&lt;font style=&quot;font-size: 18px;&quot;&gt;&lt;b&gt;Application&lt;br&gt;Server&lt;br&gt;&lt;/b&gt;&lt;/font&gt;" style="text;strokeColor=none;align=center;fillColor=none;html=1;verticalAlign=middle;whiteSpace=wrap;rounded=0;" parent="ndoNzFzWmUu_PWySdX6u-139" vertex="1">
          <mxGeometry x="35" y="190" width="60" height="30" as="geometry" />
        </mxCell>
        <mxCell id="H9eBf4VtzPF5VkzEYVOb-3" style="edgeStyle=orthogonalEdgeStyle;rounded=0;orthogonalLoop=1;jettySize=auto;html=1;exitX=0.5;exitY=1;exitDx=0;exitDy=0;" parent="ndoNzFzWmUu_PWySdX6u-139" source="H9eBf4VtzPF5VkzEYVOb-2" target="H9eBf4VtzPF5VkzEYVOb-2" edge="1">
          <mxGeometry relative="1" as="geometry" />
        </mxCell>
        <mxCell id="H9eBf4VtzPF5VkzEYVOb-25" value="" style="html=1;shadow=0;dashed=0;align=center;verticalAlign=middle;shape=mxgraph.arrows2.twoWayArrow;dy=0.7;dx=23;" parent="ndoNzFzWmUu_PWySdX6u-139" vertex="1">
          <mxGeometry x="120" y="120" width="160" height="50" as="geometry" />
        </mxCell>
        <mxCell id="H9eBf4VtzPF5VkzEYVOb-26" value="" style="html=1;shadow=0;dashed=0;align=center;verticalAlign=middle;shape=mxgraph.arrows2.twoWayArrow;dy=0.8;dx=17;direction=south;" parent="ndoNzFzWmUu_PWySdX6u-139" vertex="1">
          <mxGeometry x="53.75" y="230" width="22.5" height="70" as="geometry" />
        </mxCell>
        <mxCell id="H9eBf4VtzPF5VkzEYVOb-27" value="" style="html=1;shadow=0;dashed=0;align=center;verticalAlign=middle;shape=mxgraph.arrows2.twoWayArrow;dy=0.8;dx=17;direction=south;" parent="ndoNzFzWmUu_PWySdX6u-139" vertex="1">
          <mxGeometry x="310" y="220" width="22.5" height="90" as="geometry" />
        </mxCell>
        <mxCell id="ndoNzFzWmUu_PWySdX6u-274" value="" style="image;html=1;image=img/lib/clip_art/computers/Server_Rack_128x128.png;noLabel=0;portConstraintRotation=0;connectable=1;allowArrows=1;fixDash=0;" parent="1" vertex="1">
          <mxGeometry x="1132.53" y="430" width="93.13" height="110" as="geometry" />
        </mxCell>
        <mxCell id="H9eBf4VtzPF5VkzEYVOb-49" value="" style="shape=flexArrow;endArrow=classic;startArrow=classic;html=1;rounded=0;entryX=0.031;entryY=0.042;entryDx=0;entryDy=0;entryPerimeter=0;" parent="1" source="ndoNzFzWmUu_PWySdX6u-274" target="ndoNzFzWmUu_PWySdX6u-141" edge="1">
          <mxGeometry width="100" height="100" relative="1" as="geometry">
            <mxPoint x="1110" y="635" as="sourcePoint" />
            <mxPoint x="1210" y="535" as="targetPoint" />
          </mxGeometry>
        </mxCell>
      </root>
    </mxGraphModel>
  </diagram>
</mxfile>
